<svg xmlns="http://www.w3.org/2000/svg" width="72" height="68"><path d="M71.2 34.2c-.1-.1-.2-.1-.3-.1-.1 0-.2.1-.2.2-.3.2-.5.4-.9.5-.3.1-.6.2-.8.4-.3.2-.6.5-.9.6-.8.4-1.3 1-1.6 1.8-.4.9-.8 1.8-.9 2.9 0 .2 0 .3-.2.4-.1-.2-.1-.3-.2-.5-.2-.7-.5-1.3-.8-2-.1-.2-.2-.4-.5-.5-.1 0-.2-.1-.2-.2s-.2-.2-.2-.3v-1.1c-.1 0-.2.1-.3.3 0 .1-.1.1-.2.4-.1.3-.1.4-.1.4-.2.8-.3 1.2-.3 1.3-.1.5-.2.9 0 1.6.1.3 0 .7.1 1 .1.7.4 1.4.8 2 .1.2.3.3.5.4h.3c.2 0 .3-.1.3 0 .2.1-.1 1.3-.8 2.5-.1.2-.1.5-.2.7-.4 1-.9 2-1.4 3l-.3.6c0 .1-.1.1-.2.1-.1-.1 0-.2 0-.3v-.9c-.1-1.2-.5-2.3-.6-3.5 0-.4 0-.7.2-1 .1-.1.1-.1.1-.2.1-.2-.1-.3-.2-.4-.1-.1-.2.1-.2.1-.4.6-.8 1.1-1.2 1.7-.7 1-1.1 2.1-1.3 3.3-.1.7-.1 1.4 0 2.2.1.4.2.8.5 1.1.2.3.4.6.6.8.1.1.1.2 0 .3-.4.4-.6.9-1 1.3-.7.9-1.5 1.6-2.4 2.3-.3.3-.6.6-.9.8-.3.3-.7.5-1 .8-.7.5-1.5 1-2.3 1.4-.2.1-.3.2-.5.2-.1-.1-.1-.1 0-.2.5-.6.9-1.4 1.1-2.1.3-1.1.8-2 1.6-2.8.1-.1.1-.2 0-.4-.1-.1-.2-.1-.3 0-.3.2-.6.3-.8.6-.7.6-1.4 1.1-2.1 1.5-.8.6-1.6 1.3-2.1 2.1-.4.6-.7 1.3-.7 2v.3c.1.5-.2.6-.6.7-.6.2-1.2.4-1.8.4-.3 0-.6.1-.8.2-.6.2-1.2.2-1.8.2-.8 0-1.7 0-2.5-.1-.1 0-.3 0-.3-.2.2-.1.4-.1.6-.2.4-.1.7-.3 1-.5.4-.3.7-.5 1.1-.8.5-.4.8-.8 1.2-1.2.4-.3.8-.7 1.3-.8.1 0 .3-.1.2-.2 0-.1-.1-.2-.3-.2h-.2c-1.1.1-2.2.3-3.2.6-.7.2-1.3.6-1.9.9-.8.4-1.3 1-1.7 1.8-.1.3-.2.3-.5.2-.4-.2-.9-.2-1.3-.4h-.1c-.2 0-.4 0-.4.1 0 .2.1.3.2.3.2.1.4.1.6.2.5.1 1 .3 1.4.4.7.2 1.4.4 2.2.5 1 .1 2.1.1 3.1 0h.3c.3 0 .3 0 .2.3-.2.7-.1 1.3.3 1.9.4.5 1 .8 1.6 1.1.6.2 1.2.1 1.8 0 .7-.2 1.3-.4 2-.5.2-.1.4-.1.6-.2.1-.1.2-.2.2-.3-.1-.2-.2-.3-.4-.2h-.1c-.3.3-.7.1-1.1.1-.5-.1-.9-.3-1.4-.5-.4-.2-.6-.5-.8-.9-.1-.3-.2-.5-.4-.7-.1-.1-.1-.2.1-.2 1.3-.3 2.5-.8 3.7-1.4.9-.4 1.8-.9 2.7-1.4l1.5-.9c.2-.1.3-.1.5 0 .5.4 1 .5 1.6.4.8-.1 1.5-.3 2.3-.5.9-.4 1.8-.9 2.6-1.5.3-.2.6-.4.9-.5.2-.1.2-.2.2-.3 0-.2-.2-.2-.3-.2-.6.1-1.3 0-1.9-.1-.9-.1-1.1.1-2.3.1h-.4c.3-.3.5-.6.8-.9.7-.7 1.2-1.5 1.8-2.3.9-1.1 1.6-2.4 2.3-3.7.3-.5.4-1 .7-1.5.1-.2.1-.3.3-.1.2.3.5.3.8.2.9-.1 1.7-.3 2.5-.8.6-.4 1.2-1 1.7-1.6.2-.3.5-.6.8-.9.4-.4.9-.7 1.4-1 0 0 .1 0 .1-.1.1-.1.1-.2.1-.3 0-.1-.2-.2-.2-.1-.5.3-1.1.2-1.7.3-.5.1-.9.1-1.4.2-.1 0-.3.1-.4.1-.8.5-1.7.9-2.3 1.7-.2.3-.5.5-.9.7.2-.5.3-.9.4-1.3.4-1 .6-2 .9-3 .2-.6.4-1.1.6-1.7.1-.2.1-.3.3-.3 1.3-.5 2.1-1.5 2.7-2.7l1.2-2.4c.2-.5.6-.9 1-1.2.1-.1.2-.1.2-.2-.1.3-.2.1-.2 0zM38.6 62.8c.2-.3.3-.5.5-.7.6-.8 1.5-1.2 2.3-1.6.6-.2 1.1-.3 1.7-.5.3-.1.6-.1 1-.1 0 .2-.1.2-.2.3-.3.1-.5.3-.7.6-.6.7-1.3 1.3-2.1 1.7-.8.4-1.6.4-2.5.3zm9 3.1c.3.1.5.2.8.3.1 0 .1 0 .1.1s-.1.1-.1.1c-.2 0-.3.1-.4.1-.1 0-.2 0-.2.1-1 .3-1.8.1-2.6-.5-.6-.4-.9-1.4-.5-2.1.1-.2.2-.2.3-.3.6-.1 1.1.1 1.4.8.1.7.6 1.1 1.2 1.4zm1.9-4.1c-.2.1-.5.2-.7.4-.1.1-.2.1-.2-.1v-.8c.1-.6.3-1.2.7-1.6.3-.4.7-.8 1.1-1.1.7-.6 1.5-1.1 2.2-1.7h.1l-.3.6c-.2.9-.5 1.7-1 2.5-.5.7-1.1 1.4-1.9 1.8zm10.1-4.3c.5 0 1 .1 1.5.1 0 .1-.1.2-.1.2-.5.5-1.2.8-1.9 1.2-.9.4-1.9.7-2.9.7-.2 0-.4 0-.7-.1-.1-.1-.2-.1-.1-.3.1-.2.2-.3.4-.4.4-.3.8-.6 1.2-.8.8-.5 1.7-.6 2.6-.6zm1.3-5.8c-.1.2-.3.4-.4.7-.1.3-.4.5-.6.7-.1.1-.2.1-.3 0-.4-.5-.8-1-.8-1.6 0-.9 0-1.8.2-2.7.2-.9.7-1.7 1.2-2.4 0 0 .1-.1.1 0 .2.4.2.8.3 1.2.2.7.4 1.5.5 2.2.2.6.1 1.3-.2 1.9zm5.1-5.5c.2-.2.5-.3.7-.5.7-.6 1.5-.5 2.3-.7.1 0 .1 0 .1.1s0 .1-.1.1l-.4.4c-.4.5-.8 1-1.3 1.5-1 1-2.2 1.4-3.5 1.5-.1 0-.3 0-.3-.1v-.1c.8-.8 1.6-1.6 2.5-2.2zm-1.5-3c-.2.3-.6.4-.8 0-.2-.3-.4-.7-.6-1-.4-1-.4-2-.4-3 0-.3.2-.6.3-.9l.6.3c.2.1.3.2.3.4.2.5.4.9.6 1.4.1.3.3.5.2.8v.5c.2.5.1 1-.2 1.5zm4.7-6.8c-.3.6-.6 1.2-.9 1.9-.4.8-.9 1.4-1.6 1.9-.3.2-.5.1-.5-.3v-.2c.3-.8.6-1.6 1-2.3.1-.2.2-.4.4-.5.5-.4 1.1-.8 1.6-1.2.1-.1.2-.2.4-.2-.1.3-.3.6-.4.9zM1.1 33.1c.1 0 .2-.1.2-.2.3-.2.5-.4.9-.5.3-.1.6-.2.8-.4.3-.2.6-.5.9-.6.8-.4 1.3-1 1.6-1.8.4-.9.8-1.8.9-2.9 0-.2 0-.3.2-.4.1.2.1.3.2.5.2.7.5 1.3.8 2 .1.2.2.4.5.5.1 0 .2.1.2.2.1.1.2.2.2.3v1.1c.1 0 .2-.1.3-.3 0-.1.1-.1.2-.4.1-.3.1-.4.1-.4.2-.8.3-1.2.3-1.3.1-.5.1-.9 0-1.6-.1-.3 0-.7-.1-1-.1-.7-.4-1.4-.8-2-.1-.2-.3-.3-.5-.4h-.3c-.2 0-.3.1-.3 0-.2-.1.1-1.3.8-2.5.1-.2.1-.5.2-.7.4-1 .9-2 1.4-3l.3-.6c0-.1.1-.1.2-.1.1.1 0 .2 0 .3v.9c.1 1.2.5 2.3.6 3.5 0 .4 0 .7-.2 1-.1.1-.1.1-.1.2-.1.2.1.3.2.4.1.1.2-.1.2-.1.4-.6.8-1.1 1.2-1.7.7-1 1.1-2.1 1.3-3.3.1-.7.1-1.4 0-2.2-.1-.4-.2-.8-.5-1.1-.2-.3-.4-.6-.6-.8-.1-.1-.1-.2 0-.3.4-.4.6-.9 1-1.3.7-.9 1.5-1.6 2.4-2.3.3-.3.6-.6.9-.8.3-.3.7-.5 1-.8.7-.5 1.5-1 2.3-1.4.2-.1.3-.2.5-.2.1.1.1.1 0 .2-.5.4-.8 1.2-1 1.9-.3 1.1-.8 2-1.6 2.8-.1.1-.1.2 0 .4.1.1.2.1.3 0 .3-.2.6-.3.8-.6.7-.6 1.4-1.1 2.1-1.5.8-.6 1.6-1.3 2.1-2.1.4-.6.7-1.3.7-2v-.3c-.1-.5.2-.6.6-.7.6-.2 1.2-.4 1.8-.4.3 0 .6-.1.8-.2.6-.2 1.2-.2 1.8-.2.8 0 1.7 0 2.5.1.1 0 .3 0 .3.2-.2.1-.4.1-.6.2-.4.1-.7.3-1 .5-.4.3-.7.5-1.1.8-.5.4-.8.8-1.2 1.2-.4.3-.8.7-1.3.8-.1 0-.3.1-.2.2 0 .1.1.2.3.2h.2c1.1-.1 2.2-.3 3.2-.6.7-.2 1.3-.6 1.9-.9.8-.4 1.3-1 1.7-1.8.1-.3.2-.3.5-.2.4.2.9.2 1.3.4h.1c.2 0 .4 0 .4-.1 0-.2-.1-.3-.2-.3-.2-.1-.4-.1-.6-.2-.5-.1-1-.3-1.4-.4-.7-.2-1.4-.4-2.2-.5-1-.1-2.1-.1-3.1 0h-.3c-.3 0-.3 0-.2-.3.2-.7.1-1.3-.3-1.9-.4-.5-1-.8-1.6-1.1-.6-.2-1.2-.1-1.8 0-.7.2-1.3.4-2 .5-.2 0-.4.1-.6.2-.1.1-.2.2-.1.3.1.2.2.3.4.2h.1c.3-.3.7-.1 1.1-.1.5.1.9.3 1.4.5.4.2.6.5.8.9.1.3.2.5.4.7.1.1.1.2-.1.2-1.3.3-2.5.8-3.7 1.4-.9.4-1.8.9-2.7 1.4l-1.5.9c-.2.1-.3.1-.5 0-.5-.4-1-.5-1.6-.4-.8.1-1.5.3-2.3.5-.9.4-1.8.9-2.6 1.5-.3.2-.6.4-.9.5-.2.3-.3.4-.2.6 0 .2.2.2.3.2.6-.1 1.3 0 1.9.1.9.1 1.1-.1 2.3-.1h.4c-.3.3-.5.6-.8.9-.7.7-1.2 1.5-1.8 2.3-.9 1.1-1.6 2.4-2.3 3.7-.3.5-.4 1-.7 1.5-.1.2-.1.3-.3.1-.2-.3-.5-.3-.8-.2-.9-.2-1.8 0-2.5.5-.6.4-1.2 1-1.7 1.6-.2.3-.5.6-.8.9-.4.4-.9.7-1.4 1 0 0-.1 0-.1.1-.1.1-.1.2-.1.3 0 .1.2.2.2.1.5-.3 1.1-.2 1.7-.3.5-.1.9-.1 1.4-.2.1 0 .3-.1.4-.1.8-.5 1.7-.9 2.3-1.7.2-.3.5-.5.9-.7-.2.5-.3.9-.4 1.3-.4 1-.6 2-.9 3-.2.6-.4 1.1-.6 1.7-.1.2-.1.3-.3.3-1.3.5-2.1 1.5-2.7 2.7L2 31.4c-.2.5-.6.9-1 1.2-.1.1-.2.1-.2.2-.1.1-.1.2 0 .3.1.1.2.1.3 0zM33.4 4.5c-.2.3-.4.5-.5.7-.6.8-1.5 1.2-2.3 1.6-.6.2-1.2.3-1.8.5-.3.1-.6.1-1 .1 0-.2.1-.2.2-.3.3-.1.5-.3.7-.6.6-.7 1.3-1.3 2.1-1.7.9-.4 1.7-.4 2.6-.3zm-9-3.1c-.3-.1-.5-.2-.8-.3-.1 0-.1 0-.1-.1s.1-.1.1-.1c.1 0 .3-.1.4-.1.1 0 .2 0 .2-.1 1-.3 1.8-.1 2.6.5.5.4.9 1.4.5 2.1-.1.2-.2.2-.3.3-.6.1-1.1-.1-1.4-.8-.1-.7-.6-1.1-1.2-1.4zm-1.9 4.1c.2-.1.5-.2.7-.4.1-.1.2-.1.2.1V6c-.1.6-.3 1.2-.7 1.6-.3.4-.7.8-1.1 1.1-.7.6-1.5 1.1-2.2 1.7h-.1l.3-.6c.2-.9.5-1.7 1-2.5.5-.7 1.1-1.4 1.9-1.8zM12.4 9.8c-.5 0-1-.1-1.5-.1 0-.1.1-.2.1-.2.5-.5 1.2-.8 1.9-1.2.9-.4 1.9-.7 2.9-.7.2 0 .4 0 .7.1.1.1.2.1.1.3-.1.2-.2.3-.4.4-.4.3-.8.6-1.2.8-.8.5-1.7.6-2.6.6zm-1.3 5.8c.1-.2.3-.4.4-.7.1-.3.4-.5.6-.7.1-.1.2-.1.3 0 .4.5.8 1 .8 1.6 0 .9 0 1.8-.2 2.7-.2.9-.7 1.7-1.2 2.4 0 0-.1.1-.1 0-.2-.4-.2-.8-.3-1.2-.2-.7-.4-1.5-.5-2.2-.2-.6-.1-1.3.2-1.9zm-5 5.5c-.2.2-.5.3-.7.5-.7.6-1.5.5-2.3.7-.1 0-.1 0-.1-.1s0-.1.1-.1l.4-.4c.4-.5.8-1 1.3-1.5 1-1 2.2-1.4 3.5-1.5.1 0 .3 0 .3.1v.1c-.9.8-1.7 1.6-2.5 2.2zm1.4 3c.2-.3.6-.4.8 0 .2.3.4.7.6 1 .4 1 .4 2 .4 3 0 .3-.1.6-.3.9l-.6-.3c-.2-.1-.3-.2-.3-.4-.2-.5-.4-.9-.6-1.4-.1-.3-.3-.5-.2-.8v-.5c-.2-.5-.1-1 .2-1.5zm-4.7 6.8c.3-.6.6-1.2.9-1.9.4-.8.9-1.4 1.6-1.9.3-.2.5-.1.5.3v.2c-.3.8-.6 1.6-1 2.3-.1.2-.2.4-.4.5-.5.4-1.1.8-1.6 1.2-.1.1-.2.2-.4.2.1-.3.3-.6.4-.9zm33-26.4zm-.2 57.8s0 .1 0 0c-.5.2-.9.3-1.4.4-.3.1-.3.1-.5-.2-.4-.8-1-1.4-1.7-1.8-.6-.3-1.2-.7-1.9-.9-1.1-.3-2.1-.5-3.2-.6h-.2c-.1 0-.2.1-.3.2 0 .2.1.2.2.2.5.1.9.5 1.3.8.4.4.8.9 1.2 1.2.4.3.7.5 1.1.8.3.2.6.4 1 .5.2.1.4.1.6.2-.1.2-.2.1-.3.2-.8.1-1.7.1-2.5.1-.6 0-1.2 0-1.8-.2-.3-.1-.6-.2-.8-.2-.6 0-1.2-.2-1.8-.4-.4-.1-.6-.3-.6-.7v-.3c0-.8-.3-1.4-.7-2-.5-.9-1.3-1.6-2.1-2.1L19.1 56c-.3-.2-.6-.4-.8-.6-.1-.1-.2-.1-.3 0-.1.1-.1.3 0 .4.8.8 1.3 1.7 1.6 2.8.2.8.5 1.5 1.1 2.1v.2c-.2 0-.3-.1-.5-.2-.8-.4-1.5-.9-2.3-1.4-.4-.2-.7-.5-1-.8-.3-.3-.6-.6-.9-.8-.9-.7-1.7-1.5-2.4-2.3-.4-.4-.6-.9-1-1.3-.1-.1-.1-.2 0-.3.2-.2.4-.6.6-.8.2-.3.4-.7.5-1.1.1-.7.2-1.4 0-2.2-.2-1.2-.6-2.3-1.3-3.3-.4-.6-.8-1.1-1.2-1.7-.1-.1-.1-.2-.2-.1s-.3.2-.2.4c0 .1.1.2.1.2.2.3.2.6.2 1-.1 1.2-.5 2.3-.6 3.5v.9c0 .1.1.2 0 .3-.1 0-.1-.1-.2-.1l-.3-.6c-.4-1-1-2-1.4-3-.1-.2-.1-.5-.2-.7-.7-1.3-1-2.4-.8-2.5h.6c.2-.1.4-.2.5-.4.4-.6.7-1.3.8-2 .1-.3 0-.7.1-1 .2-.7.1-1.1 0-1.6 0-.2-.1-.6-.3-1.3 0 0 0-.1-.1-.4-.1-.3-.1-.4-.2-.4-.1-.2-.3-.3-.3-.3v1.1c-.1.2-.2.3-.2.3-.1.1-.2.1-.2.2-.2.1-.3.3-.5.5-.3.6-.6 1.3-.8 2 0 .2-.1.3-.2.5-.2-.1-.2-.3-.2-.4-.1-1-.5-1.9-.9-2.9-.4-.9-.9-1.5-1.7-2l-.9-.6c-.3-.2-.5-.4-.9-.4-.4-.1-.6-.3-.9-.5l-.2-.2c-.1-.1-.2 0-.3.1-.1.1-.1.2 0 .3l.2.2c.4.3.8.7 1 1.2l1.2 2.4c.6 1.2 1.4 2.2 2.7 2.7.2.1.2.1.3.3.2.6.4 1.1.6 1.7l.9 3c.1.4.3.8.4 1.3-.4-.2-.7-.4-.9-.7-.6-.8-1.5-1.2-2.3-1.7-.1-.1-.3-.1-.4-.1-.5-.1-.9-.2-1.4-.2-.6-.1-1.1 0-1.7-.3-.1 0-.2 0-.2.1s0 .2.1.3l.1.1c.5.3 1 .6 1.4 1 .3.3.5.6.8.9.5.6 1 1.2 1.7 1.6.7.4 1.6.6 2.5.7.3 0 .6 0 .8-.2.1-.2.2-.2.3.1.2.5.4 1 .7 1.5.7 1.3 1.4 2.5 2.3 3.7.6.8 1.2 1.5 1.8 2.3.3.3.5.6.8.9h-.4c-1.2 0-1.4-.2-2.3-.1-.6.1-1.3.2-1.9.1-.2 0-.3 0-.3.2s0 .3.2.3c.3.1.6.3.9.5.8.6 1.7 1.1 2.6 1.5.7.3 1.5.4 2.3.5.6.1 1.1 0 1.6-.4.2-.1.3-.1.5 0l1.5.9c.9.5 1.8.9 2.7 1.4 1.2.6 2.4 1.1 3.7 1.4.2 0 .2.1.1.2-.2.2-.3.5-.4.7-.1.4-.4.7-.8.9-.4.2-.9.4-1.4.5-.4.1-.7.2-1.1-.1h-.1c-.2 0-.3.1-.4.2-.1.1 0 .2.1.3.2.1.4.2.6.2.7.2 1.3.4 2 .5.6.2 1.2.2 1.8 0 .6-.2 1.2-.5 1.6-1.1.4-.6.6-1.2.3-1.9-.1-.3-.1-.3.2-.3h.3c1 .1 2.1.2 3.1 0 .7-.1 1.5-.2 2.2-.5.5-.2.9-.3 1.4-.4.2-.1.4-.1.6-.2.1 0 .2-.1.2-.3.1 0-.1-.1-.3-.1zM5.4 40.2c-.7-.5-1.3-1.1-1.6-1.9-.3-.6-.6-1.2-.9-1.9-.1-.3-.3-.6-.4-1 .2 0 .3.1.4.2.5.4 1.1.8 1.6 1.2.2.1.3.3.4.5.4.7.7 1.5 1 2.3v.2c0 .5-.2.6-.5.4zm1.9 1.5c0-.2.1-.3 0-.5 0-.3.1-.5.2-.8.2-.4.4-.9.6-1.4.1-.2.2-.3.3-.4l.6-.3.3.9c0 1 0 2.1-.4 3-.1.4-.3.7-.6 1-.2.3-.6.3-.8 0-.3-.5-.4-1-.2-1.5zm.7 6.9c-1.4-.1-2.6-.5-3.5-1.5-.4-.5-.9-1-1.3-1.5l-.4-.4-.1-.1c0-.1.1-.1.1-.1.8.2 1.6.1 2.3.7.2.2.5.3.7.5.9.6 1.6 1.4 2.3 2.2v.1c.2.1.1.1-.1.1zm4 4.5c-.2-.2-.4-.4-.6-.7-.1-.2-.3-.5-.4-.7-.3-.6-.4-1.3-.3-2 .1-.7.3-1.5.5-2.2.1-.4.1-.8.3-1.2h.1c.5.7 1 1.5 1.2 2.4.3.9.3 1.8.2 2.7 0 .7-.4 1.2-.8 1.6 0 .2-.1.2-.2.1zm4.5 6.5c-.2.1-.4.1-.7.1-1-.1-2-.3-2.9-.7-.7-.3-1.4-.6-1.9-1.2 0 0-.1-.1-.1-.2.5-.1 1-.1 1.5-.1.9 0 1.8.1 2.6.6.4.3.8.5 1.2.8.2.1.3.3.4.4 0 .2 0 .3-.1.3zm6.7 2.6c-.2-.2-.4-.3-.7-.4-.9-.4-1.4-1.1-1.9-1.8-.5-.8-.8-1.6-1-2.5 0-.2-.2-.4-.3-.6h.1c.7.6 1.5 1.1 2.2 1.7.4.3.8.7 1.1 1.1.4.5.6 1 .7 1.6v.8c0 .1-.1.2-.2.1zm3.7 3.8c-.8.6-1.7.8-2.6.5-.1 0-.2 0-.2-.1-.1 0-.3-.1-.4-.1-.1 0-.1 0-.1-.1s0-.1.1-.1c.3-.1.5-.2.8-.3.6-.3 1.1-.6 1.4-1.3.3-.7.7-1 1.4-.8.2 0 .3.1.3.3.2.7-.1 1.6-.7 2zm4-3.5c-.8-.5-1.5-1-2.1-1.7-.2-.2-.4-.5-.7-.6-.1 0-.2-.1-.2-.3.3 0 .7.1 1 .1.6.1 1.2.2 1.7.5.9.4 1.7.8 2.3 1.6.2.2.3.4.5.7-.9.1-1.7.1-2.5-.3zM36.4 5s0-.1 0 0c.5-.2.9-.3 1.4-.4.3-.1.3-.1.5.2.4.8 1 1.4 1.7 1.8.6.3 1.2.7 1.9.9 1 .2 2.1.4 3.2.5h.2c.1 0 .2-.1.3-.2 0-.2-.1-.2-.2-.2-.5-.1-.9-.5-1.3-.8-.4-.4-.8-.9-1.2-1.2-.4-.3-.7-.5-1.1-.8-.3-.2-.6-.4-1-.5-.2-.1-.4-.1-.6-.2.1-.2.2-.1.3-.2.8-.1 1.7-.1 2.5-.1.6 0 1.2 0 1.8.2.3.1.6.2.8.2.6 0 1.2.2 1.8.4.4.1.6.3.6.7v.3c0 .8.3 1.4.7 2 .5.9 1.3 1.6 2.1 2.1l2.1 1.5c.3.2.6.4.8.6.1.1.2.1.3 0 .1-.1.1-.3 0-.4-.8-.8-1.3-1.7-1.6-2.8-.1-.6-.4-1.4-1-2v-.2c.2 0 .3.1.5.2.8.4 1.5.9 2.3 1.4.4.2.7.5 1 .8.3.3.6.6.9.8.9.7 1.7 1.5 2.4 2.3.4.4.6.9 1 1.3.1.1.1.2 0 .3-.2.2-.4.6-.6.8-.2.3-.4.7-.5 1.1-.1.7-.2 1.4 0 2.2.2 1.2.6 2.3 1.3 3.3.4.6.8 1.1 1.2 1.7.1.1.1.2.2.1s.3-.2.2-.4c0-.1-.1-.2-.1-.2-.2-.3-.2-.6-.2-1 .1-1.2.5-2.3.6-3.5v-.9c0-.1-.1-.2 0-.3.1 0 .1.1.2.1l.3.6c.4 1 1 2 1.4 3 .1.2.1.5.2.7.7 1.3 1 2.4.8 2.5h-.6c-.2.1-.4.2-.5.4-.4.6-.7 1.3-.8 2-.1.3 0 .7-.1 1-.2.7-.1 1.1 0 1.6 0 .2.1.6.3 1.3 0 0 0 .1.1.4.1.3.1.4.2.4.1.2.3.3.3.3v-1.1c.1-.2.2-.3.2-.3.1-.1.2-.1.2-.2.2-.1.3-.3.5-.5.3-.6.6-1.3.8-2 0-.2.1-.3.2-.5.2.1.2.3.2.4.1 1 .5 1.9.9 2.9.3.8.9 1.4 1.6 1.8l.9.6c.3.2.5.4.8.4.4.1.6.3.9.5l.2.2c.1.1.2 0 .3-.1.1-.1.1-.2 0-.3l-.2-.2c-.4-.3-.8-.7-1-1.2l-1.2-2.4c-.6-1.2-1.4-2.2-2.7-2.7-.2-.1-.2-.1-.3-.3-.2-.6-.4-1.1-.6-1.7l-.9-3c-.1-.4-.3-.8-.4-1.3.4.2.7.4.9.7.6.8 1.5 1.2 2.3 1.7.1.1.3.1.4.1.5.1.9.2 1.4.2.6.1 1.1 0 1.7.3.1 0 .2 0 .2-.1s0-.2-.1-.3l-.1-.1c-.5-.3-1-.6-1.4-1-.3-.3-.5-.6-.8-.9-.5-.6-1-1.2-1.7-1.6-.8-.5-1.6-.7-2.5-.8-.3 0-.6 0-.8.2-.1.2-.2.2-.3-.1-.2-.5-.4-1-.7-1.5-.7-1.3-1.4-2.5-2.3-3.7-.6-.8-1.2-1.5-1.8-2.3-.3-.3-.5-.6-.8-.9h.4c1.2 0 1.4.2 2.3.1.6-.1 1.3-.2 1.9-.1.2 0 .3 0 .3-.2s0-.3-.2-.3c-.3-.1-.6-.3-.9-.5-.8-.6-1.7-1.1-2.6-1.5-.7-.3-1.5-.4-2.3-.5-.6-.1-1.1 0-1.6.4-.2.1-.3.1-.5 0l-1.5-.9c-.9-.5-1.8-.9-2.7-1.4-1.2-.6-2.4-1.1-3.7-1.4-.2 0-.2-.1-.1-.2.2-.2.3-.5.4-.7.1-.4.4-.7.8-.9.4-.2.9-.4 1.4-.5.4-.1.7-.2 1.1.1h.1c.2 0 .3-.1.4-.2.1-.1 0-.2-.1-.3-.2-.1-.4-.2-.6-.2-.7-.2-1.3-.4-2-.5-.6-.2-1.2-.2-1.8 0-.6.2-1.2.5-1.6 1.1-.5.6-.6 1.2-.3 1.9.1.3.1.3-.2.3h-.3c-1-.1-2.1-.2-3.1 0-.7.1-1.5.2-2.2.5-.5.2-.9.3-1.4.4-.2.1-.4.1-.6.2-.1 0-.2.1-.2.3 0 .4.2.4.4.4zm30.2 22.1c.7.5 1.3 1.1 1.6 1.9.3.6.6 1.2.9 1.9.2.3.3.6.4 1-.2 0-.3-.1-.4-.2-.5-.4-1.1-.8-1.6-1.2-.2-.1-.3-.3-.4-.5-.4-.7-.7-1.5-1-2.3v-.2c0-.5.2-.6.5-.4zm-1.9-1.5c0 .2-.1.3 0 .5 0 .3-.1.5-.2.8-.2.5-.4.9-.6 1.4-.1.2-.2.3-.3.4-.2.1-.4.2-.5.3l-.3-.9c0-1 0-2.1.4-3 .1-.4.3-.7.6-1 .2-.3.6-.3.8 0 .2.5.3 1 .1 1.5zm-.7-6.9c1.4.1 2.6.5 3.5 1.5.5.5.9 1 1.3 1.5l.4.4.1.1c0 .1-.1.1-.1.1-.8-.2-1.6-.1-2.3-.7-.2-.2-.5-.3-.7-.5-.9-.6-1.6-1.4-2.3-2.2v-.1c-.2-.1-.1-.1.1-.1zm-4-4.5c.2.2.4.4.6.7.1.2.3.5.4.7.3.6.4 1.3.3 2-.1.7-.3 1.5-.5 2.2-.1.4-.1.8-.3 1.2h-.1c-.5-.7-1-1.5-1.2-2.4-.3-.9-.3-1.8-.2-2.7 0-.7.4-1.2.8-1.6 0-.2.1-.2.2-.1zm-4.5-6.5c.2-.1.4-.1.7-.1 1 .1 2 .3 2.9.7.7.3 1.4.6 1.9 1.2 0 0 .1.1.1.2-.5.1-1 .1-1.5.1-.9 0-1.8-.1-2.6-.6-.4-.3-.8-.5-1.2-.8-.2-.1-.3-.3-.4-.4 0-.2 0-.3.1-.3zm-6.7-2.6c.2.2.4.3.7.4.9.4 1.4 1.1 1.9 1.8.5.8.8 1.6 1 2.5 0 .2.2.4.3.6h-.1c-.7-.6-1.5-1.1-2.2-1.7-.4-.3-.8-.7-1.1-1.1-.4-.5-.6-1-.7-1.6v-.8c0-.1.1-.2.2-.1zm-3.7-3.8c.8-.6 1.7-.8 2.6-.5.1 0 .2 0 .2.1.1 0 .3.1.4.1.1 0 .1 0 .1.1s0 .1-.1.1c-.3.1-.5.2-.8.3-.6.3-1.1.6-1.4 1.3-.3.7-.7 1-1.4.8-.2 0-.3-.1-.3-.3-.2-.7.1-1.6.7-2zm-4 3.5c.8.5 1.5 1 2.1 1.7.2.2.4.5.7.6.1 0 .2.1.2.3-.3 0-.7-.1-1-.1-.5-.2-1.1-.3-1.7-.5-.9-.4-1.7-.8-2.3-1.6-.1-.2-.3-.4-.5-.7.9-.1 1.7-.1 2.5.3z" fill="#bb946a"/></svg>